<svg xmlns="http://www.w3.org/2000/svg" width="88" height="30" viewBox="0 0 88 30">
    <g fill="#4F5B99" fill-rule="evenodd">
        <path d="M85.567 28.684c-3.099-4.166-4.13-8.804-5.146-13.127-.716-3.26-1.49-6.391-2.952-9.364l1.515-.796c1.628 3.124 2.38 6.477 3.096 9.737.959 4.452 1.94 8.682 4.802 12.51l-1.315 1.04z"/>
        <path d="M86.322 27.86c-2.226-.218-2.226-.218-2.204-.44 0 0-.036-.093.057-.13l.799-2.662-.036-.094c-.595-1.27-1.7-3.31-1.893-4.093-.129-.058-.316.014-.445-.044-.316.014-.445-.043-.48-.136l-.072-.187.015-1.077c.072-1.206.051-2.376.095-2.822-1.206-.072-1.206-.072-1.278-.259l-.072-.187c-.035-.093.08-.351.26-1.277.043-.445.144-1.02.223-1.372l-1.113-.108c-.129-.057-.258-.115-.2-.244.057-.13.115-.259.244-.201l1.335.13c.13.058.258.115.2.244.037.094-.157.704-.338 1.63-.079.352-.158.703-.18.926l.89.087c.352.079.352.079.481.136l.072.187a75.068 75.068 0 0 0-.117 3.044c.014.316.029.632.007.854l.093-.035c.539.007.761.029.797.122l.072.187c.014.316.953 2.205 1.82 3.907 0 0 .094-.036.13.057.13.058.165.151.108.28l-.835 2.57c.574.101 1.651.116 1.651.116l-.086.89zM79.313 8.484c-.094.036-.094.036 0 0-.223-.021-.352-.079-.33-.302.057-.129.115-.258.244-.2.129.057.258.115.2.244a.215.215 0 0 1-.114.258z"/>
        <g>
            <path d="M86.206 29.51c-5.34-3.306-18.476-6.832-24.62-8.33l.43-1.665c6.239 1.462 19.634 5.103 25.138 8.56l-.948 1.436z"/>
            <path d="M80.787 26.556l-.093.036c-.094.036-.13-.057-.13-.057-.093.035-.222-.022-.316.014-.409.05-.725.064-.796-.123-3.834-.778-15.37-3.205-16.252-5.223-.89-.087-.89-.087-1.019-.144l-.072-.187c.058-.13.115-.258.245-.2l.093-.037c.13.058.538.008.761.03.316-.015.316-.015.352.079l.071.187c-.108 1.112 8.161 3.4 15.922 4.92.093-.035.129.058.129.058.093-.036.316-.014.409-.05.41-.05.632-.028.797.123l.107.28c-.057.13-.115.258-.208.294z"/>
        </g>
        <path d="M1.82 23.984C14.154 14.537 27.385 4.638 43.34 3.227c14.948-1.24 24.987 5.94 33.423 17.59-.638-.826-.508-2.161-1.147-2.987C67.087 6.215 57.176-.907 42.228.333 26.296 1.52 12.95 11.679.674 20.997c-.245.2 1.39 2.787 1.146 2.987z"/>
    </g>
</svg>
